<svg xmlns="http://www.w3.org/2000/svg" xmlns:xlink="http://www.w3.org/1999/xlink" version="1.1" x="0px" y="0px" viewBox="200 200 100 125" enable-background="new 200 200 100 100" xml:space="preserve"><g><path d="M261.494,214.599h20.203c0.416,2.933,2.744,5.258,5.68,5.671v18.255c0,0.518,0.42,0.938,0.938,0.938   c0.519,0,0.938-0.42,0.938-0.938V220.27c3.244-0.456,5.748-3.245,5.748-6.608c0-3.681-2.998-6.675-6.686-6.675   c-3.366,0-6.158,2.499-6.617,5.737h-20.203c-0.518,0-0.938,0.42-0.938,0.938S260.977,214.599,261.494,214.599z M288.314,208.861   c2.652,0,4.811,2.153,4.811,4.8s-2.157,4.8-4.809,4.801c0,0,0,0-0.002,0c0,0,0,0-0.001,0c-2.651-0.001-4.808-2.154-4.808-4.801   S285.663,208.861,288.314,208.861z"/><path d="M238.505,285.401h-20.203c-0.415-2.933-2.743-5.258-5.68-5.671v-18.255c0-0.518-0.419-0.938-0.938-0.938   c-0.518,0-0.938,0.42-0.938,0.938v18.255c-3.243,0.457-5.747,3.245-5.747,6.608c0,3.681,2.999,6.675,6.685,6.675   c3.368,0,6.16-2.499,6.618-5.737h20.203c0.518,0,0.938-0.42,0.938-0.938S239.023,285.401,238.505,285.401z M211.685,291.139   c-2.652,0-4.81-2.153-4.81-4.8s2.158-4.8,4.81-4.8c2.652,0,4.81,2.153,4.81,4.8S214.337,291.139,211.685,291.139z"/><path d="M210.747,220.27v18.255c0,0.518,0.42,0.938,0.938,0.938c0.518,0,0.938-0.42,0.938-0.938V220.27   c2.937-0.413,5.266-2.738,5.68-5.671h20.203c0.518,0,0.938-0.42,0.938-0.938s-0.42-0.938-0.938-0.938h-20.203   c-0.458-3.238-3.25-5.737-6.618-5.737c-3.686,0-6.685,2.994-6.685,6.675C205,217.024,207.504,219.813,210.747,220.27z    M211.685,208.861c2.652,0,4.81,2.153,4.81,4.8s-2.157,4.8-4.809,4.801c0,0-0.001,0-0.001,0s-0.001,0-0.001,0   c-2.651-0.001-4.808-2.154-4.808-4.801S209.033,208.861,211.685,208.861z"/><path d="M289.252,279.73v-18.255c0-0.518-0.419-0.938-0.938-0.938c-0.518,0-0.938,0.42-0.938,0.938v18.255   c-2.936,0.413-5.265,2.739-5.68,5.671h-20.203c-0.518,0-0.938,0.42-0.938,0.938s0.42,0.938,0.938,0.938h20.203   c0.459,3.238,3.251,5.737,6.617,5.737c3.688,0,6.686-2.994,6.686-6.675C295,282.976,292.496,280.188,289.252,279.73z    M288.314,291.139c-2.651,0-4.809-2.153-4.809-4.8s2.157-4.8,4.809-4.8c2.652,0,4.811,2.153,4.811,4.8   S290.967,291.139,288.314,291.139z"/><path d="M219.348,220.374c-0.518,0-0.938,0.42-0.938,0.938v57.377c0,0.518,0.42,0.938,0.938,0.938h61.305   c0.518,0,0.938-0.42,0.938-0.938v-57.377c0-0.518-0.42-0.938-0.938-0.938H219.348z M279.715,277.751h-59.43v-55.502h59.43V277.751z   "/><path d="M236.59,266.238h26.82c0.518,0,0.938-0.42,0.938-0.938s-0.42-0.938-0.938-0.938h-9.907l10.071-5.805   c0.291-0.167,0.47-0.477,0.47-0.812v-15.109c0-0.033-0.003-0.066-0.007-0.1c-0.001-0.007,0-0.014-0.002-0.02   c-0.006-0.054-0.02-0.106-0.035-0.158c-0.004-0.013-0.008-0.024-0.013-0.037c-0.038-0.106-0.095-0.204-0.167-0.29   c-0.009-0.011-0.018-0.021-0.027-0.031c-0.036-0.039-0.074-0.076-0.117-0.109c-0.006-0.004-0.012-0.007-0.018-0.011   c-0.027-0.021-0.055-0.039-0.084-0.057l-13.107-7.554c-0.291-0.167-0.647-0.167-0.937,0l-13.105,7.554   c-0.028,0.017-0.054,0.035-0.08,0.054c-0.007,0.005-0.016,0.009-0.022,0.015c-0.042,0.032-0.08,0.068-0.115,0.106   c-0.011,0.012-0.021,0.023-0.031,0.035c-0.034,0.041-0.066,0.084-0.093,0.13c-0.001,0.001-0.002,0.003-0.003,0.004   c-0.001,0.003-0.002,0.006-0.003,0.008c-0.026,0.046-0.046,0.094-0.064,0.143c-0.005,0.015-0.011,0.029-0.015,0.045   c-0.016,0.049-0.028,0.1-0.035,0.151c-0.001,0.011-0.001,0.021-0.002,0.031c-0.003,0.03-0.006,0.061-0.006,0.091v15.109   c0,0.335,0.179,0.645,0.469,0.812l10.07,5.805h-9.906c-0.518,0-0.938,0.42-0.938,0.938S236.072,266.238,236.59,266.238z    M250.936,263.679v-12.945l11.233-6.474v12.945L250.936,263.679z M249.999,236.166l11.229,6.472l-11.23,6.472l-11.228-6.472   L249.999,236.166z M237.832,244.26l11.229,6.474v12.944l-11.229-6.473V244.26z"/></g><text x="200" y="315" fill="#000000" font-size="5px" font-weight="bold" font-family="'Helvetica Neue', Helvetica, Arial-Unicode, Arial, Sans-serif">Created by Flatart</text><text x="200" y="320" fill="#000000" font-size="5px" font-weight="bold" font-family="'Helvetica Neue', Helvetica, Arial-Unicode, Arial, Sans-serif">from the Noun Project</text></svg>