<svg xmlns="http://www.w3.org/2000/svg" viewBox="0 0 100 125" x="0px" y="0px"><title>force-directed-lattice-01</title><path d="M92.26,49.13a1.26,1.26,0,0,0-1.37-.27q-2.27-4-4.45-7.41a1.07,1.07,0,0,0,.22-.15,1.23,1.23,0,0,0-1.56-1.9c-1.14-1.69-2.25-3.26-3.36-4.73a1.23,1.23,0,0,0-1.48-1.94c-1.23-1.55-2.44-3-3.64-4.32A1.22,1.22,0,0,0,75,26.66c-1-1.08-2-2.07-3-3a1.24,1.24,0,0,0-1.8-1.71.21.21,0,0,0,0,.06c-.9-.79-1.8-1.52-2.68-2.21a1.22,1.22,0,0,0-.11-1.58,1.25,1.25,0,0,0-1.77,0s0,.07-.08.11c-.8-.59-1.6-1.15-2.39-1.68a1.23,1.23,0,0,0-.16-1.53,1.25,1.25,0,0,0-1.77,0,2,2,0,0,0-.12.19c-.75-.48-1.5-.94-2.23-1.39a1.23,1.23,0,0,0-.16-1.53,1.25,1.25,0,0,0-1.77,0,1.45,1.45,0,0,0-.17.26l-1.89-1.13a1.24,1.24,0,0,0-2-1.44,1.4,1.4,0,0,0-.1.16c-.55-.33-1.08-.67-1.61-1a1.25,1.25,0,0,0-.22-1.45,1.25,1.25,0,1,0-1.77,1.77,1.35,1.35,0,0,0,.22.14c-.85,1.54-1.72,3.1-2.6,4.66a1.21,1.21,0,0,0-1.48.19,1.25,1.25,0,0,0,0,1.77,1.45,1.45,0,0,0,.26.17q-1.38,2.43-2.82,4.83a1.24,1.24,0,0,0-1.43,2,.65.65,0,0,0,.15.1q-1.32,2.16-2.69,4.24a1.21,1.21,0,0,0-1.48.19,1.25,1.25,0,0,0,0,1.77,1.05,1.05,0,0,0,.11.07Q35.83,31.9,34.24,34a1.24,1.24,0,0,0-1.56.14,1.27,1.27,0,0,0,0,1.77l0,0c-1,1.24-2,2.41-3,3.53A1.23,1.23,0,0,0,28,41.25q-1.48,1.5-3,2.79a1.25,1.25,0,0,0-1.76,0,1.22,1.22,0,0,0-.16,1.51,30.87,30.87,0,0,1-3,1.94s-.05-.1-.09-.14a1.25,1.25,0,0,0-1.77,0,1.22,1.22,0,0,0-.3,1.21,20.33,20.33,0,0,1-2.89,1,1.19,1.19,0,0,0-.25-.38,1.25,1.25,0,0,0-1.77,0,1.22,1.22,0,0,0-.35.83,16.06,16.06,0,0,1-2.86.09,1.21,1.21,0,0,0-.34-1,1.25,1.25,0,0,0-1.77,0,1.27,1.27,0,0,0,0,1.77,1.22,1.22,0,0,0,1.17.31q1.46,3.94,3,7.38a1.16,1.16,0,0,0-.27.18,1.24,1.24,0,0,0,1.29,2.05c.94,2,1.89,3.85,2.87,5.59a.62.62,0,0,0-.17.11,1.24,1.24,0,0,0,1.4,2q1.36,2.27,2.78,4.24c-.05,0-.11.06-.15.1a1.25,1.25,0,0,0,0,1.77,1.22,1.22,0,0,0,1.63.09c.9,1.15,1.81,2.22,2.74,3.22a1.24,1.24,0,0,0,1.74,1.77c.92.88,1.84,1.7,2.78,2.46a1.23,1.23,0,0,0,1.89,1.42c.95.68,1.92,1.31,2.9,1.89a1.26,1.26,0,0,0,.28,1.36,1.24,1.24,0,0,0,1.76,0,.62.62,0,0,0,.11-.17q1.39.72,2.82,1.32a1.23,1.23,0,0,0,.31,1.15,1.25,1.25,0,0,0,1.77,0,1.45,1.45,0,0,0,.17-.26c.9.34,1.81.64,2.72.93a1.24,1.24,0,0,0,2.11,1,1.27,1.27,0,0,0,.23-.34c1,.28,2.1.54,3.17.78a1.2,1.2,0,0,0,.35,1,1.25,1.25,0,1,0,1.77-1.76.83.83,0,0,0-.12-.08q2-2.88,3.89-5.66a1.24,1.24,0,0,0,1.53-1.93,1,1,0,0,0-.13-.09q1.94-2.79,3.81-5.44a1.24,1.24,0,0,0,1.53-1.93l-.1-.07c1.2-1.68,2.4-3.32,3.57-4.89a1.22,1.22,0,0,0,1.53-.16,1.25,1.25,0,0,0,0-1.77l-.05,0q1.68-2.19,3.31-4.18a1.22,1.22,0,0,0,1.54-1.85c1-1.19,2-2.32,3-3.37a1.22,1.22,0,0,0,1.7-1.74c.87-.87,1.73-1.67,2.58-2.41a1.23,1.23,0,0,0,1.89-1.54,25.76,25.76,0,0,1,2.15-1.47,1,1,0,0,0,.11.17,1.25,1.25,0,0,0,2.06-1.3,12.72,12.72,0,0,1,1.64-.62,1.19,1.19,0,0,0,.29.48,1.25,1.25,0,0,0,1.77,0,1.22,1.22,0,0,0,.36-.9,7.58,7.58,0,0,1,1.43,0,1.24,1.24,0,1,0,2.09-.62Zm-7.37-9.6a1.25,1.25,0,0,0-.25,1.38,12,12,0,0,0-1.56.65,1.08,1.08,0,0,0-.11-.18,1.23,1.23,0,0,0-1.58-.12c-1.23-1.5-2.45-2.88-3.65-4.16a1.23,1.23,0,0,0,.19-1.46c.6-.49,1.18-.94,1.75-1.34a1.34,1.34,0,0,0,.27.4,1.24,1.24,0,0,0,1.67.07c1.11,1.47,2.23,3,3.36,4.71ZM78.3,54.66c-.86.75-1.72,1.56-2.6,2.44a1.23,1.23,0,0,0-1.63,0C73,56.38,71.89,55.66,70.82,55a1.23,1.23,0,0,0-.29-1.26,1,1,0,0,0-.17-.12c.93-1.14,1.84-2.21,2.75-3.23a1.22,1.22,0,0,0,1.62-.1c0-.05.07-.12.12-.18q1.75,1.41,3.55,3.06A1.21,1.21,0,0,0,78.3,54.66Zm-9,7.63a.56.56,0,0,1,0,.08c-1-.54-2.07-1.06-3.08-1.54a1.24,1.24,0,0,0-.3-1.26l-.11-.08q1.53-2.07,3-4a1.24,1.24,0,0,0,1.71,0,1,1,0,0,0,.17-.25c1.06.65,2.13,1.36,3.22,2.12A1.22,1.22,0,0,0,74,58.87c-1,1.05-2,2.18-3,3.36A1.25,1.25,0,0,0,69.35,62.29Zm-20.23,19a1.41,1.41,0,0,0-.27.43c-1-.26-1.9-.53-2.83-.82a1.24,1.24,0,0,0-.3-1.2.67.67,0,0,0-.14-.09c1.29-1.86,2.55-3.73,3.79-5.58a1.26,1.26,0,0,0,1.52-.17,1.24,1.24,0,0,0,.22-.34l2.77.81a1.22,1.22,0,0,0,.3,1.24s.06,0,.09.06l-3.7,5.45A1.25,1.25,0,0,0,49.12,81.3ZM25.75,77.89a1.24,1.24,0,0,0-1.51-.12c-.94-1-1.86-2.07-2.78-3.23a1.22,1.22,0,0,0,.1-1.44q1.77-1.36,3.51-2.95h0a1.25,1.25,0,0,0,1.73,0c.83.84,1.68,1.62,2.54,2.35a1.24,1.24,0,0,0,0,1.71C28.13,75.52,27,76.73,25.75,77.89ZM18.8,58.7A1.24,1.24,0,0,0,19,57.22a30.31,30.31,0,0,0,3-1.86,1.25,1.25,0,0,0,.08.12,1.24,1.24,0,0,0,1.62.11c.78,1.09,1.57,2.11,2.38,3.07a1.24,1.24,0,0,0,0,1.62c-1.16,1.08-2.34,2.1-3.54,3A1.26,1.26,0,0,0,21.24,63c-.9-1.3-1.79-2.69-2.66-4.19A1.43,1.43,0,0,0,18.8,58.7Zm32.09-40s0-.06.06-.09c.57.33,1.15.65,1.74,1A1.23,1.23,0,0,0,53,20.91a1,1,0,0,0,.29.19l-2.74,4.8a1.24,1.24,0,0,0-1.4.25,1.53,1.53,0,0,0-.14.21c-.62-.33-1.24-.68-1.85-1a1.23,1.23,0,0,0-.1-1.61.83.83,0,0,0-.23-.15q1.35-2.33,2.65-4.64A1.22,1.22,0,0,0,50.89,18.71Zm25,18.36c-.77.75-1.55,1.56-2.35,2.44a1.22,1.22,0,0,0-1.44.15C71,38.78,70,38,68.87,37.2a1.23,1.23,0,0,0-.28-1.15c.85-1.12,1.68-2.19,2.49-3.19a1.24,1.24,0,0,0,1.54-.16.88.88,0,0,0,.12-.19c1,.92,2.08,1.9,3.14,3A1.24,1.24,0,0,0,75.94,37.07Zm-3,13.14c-.9,1-1.82,2.11-2.75,3.26a1.24,1.24,0,0,0-1.4.25h0c-1-.6-2.08-1.17-3.1-1.7a1.21,1.21,0,0,0-.31-1.17,1.19,1.19,0,0,0-.23-.16c1-1.32,1.87-2.59,2.79-3.81a1.23,1.23,0,0,0,1.38-.26,1.11,1.11,0,0,0,.26-.39c1.11.72,2.23,1.5,3.36,2.35A1.26,1.26,0,0,0,72.91,50.21Zm-8.75,9.36a.85.85,0,0,0-.17.25c-1-.42-1.89-.82-2.83-1.2a1.23,1.23,0,0,0-.3-1.19,1.47,1.47,0,0,0-.28-.18c1.05-1.56,2.09-3.08,3.12-4.54a1.24,1.24,0,0,0,1.64-.09,1.3,1.3,0,0,0,.21-.31c1,.51,2,1.06,3,1.66a1.21,1.21,0,0,0,.07,1.37q-1.5,1.94-3,4A1.23,1.23,0,0,0,64.16,59.57Zm-15,12.53a1.17,1.17,0,0,0-.26.38c-.92-.29-1.83-.59-2.73-.91a1.24,1.24,0,0,0-.31-1.21l0,0q1.84-2.73,3.63-5.46a1.24,1.24,0,0,0,1.49-.18,1.27,1.27,0,0,0,.23-.34l2.78.92a1.25,1.25,0,0,0,.23,1.28l-3.56,5.34A1.25,1.25,0,0,0,49.12,72.1Zm-18.19.31a1.23,1.23,0,0,0-1.33-.06c-.89-.74-1.76-1.54-2.63-2.4a1.22,1.22,0,0,0-.1-1.51c1.2-1.18,2.37-2.43,3.53-3.74a1.25,1.25,0,0,0,1.75,0s0,0,0,0c.8.62,1.61,1.21,2.44,1.76a1.21,1.21,0,0,0,.2,1.26C33.55,69.3,32.25,70.89,30.93,72.41ZM28,58.73q1.65-1.68,3.27-3.56a1.24,1.24,0,0,0,1.5-.18l0,0c.81.68,1.63,1.32,2.45,1.91a1.22,1.22,0,0,0,.12,1.5q-1.72,2.25-3.49,4.35a1.22,1.22,0,0,0-1.35.14c-.88-.78-1.75-1.63-2.61-2.53A1.24,1.24,0,0,0,28,58.73ZM50.89,27.92a1.53,1.53,0,0,0,.11-.16l1.78.87a1.19,1.19,0,0,0,.56,1.72Q52,32.71,50.55,35.11a1.23,1.23,0,0,0-1.43.22,1.14,1.14,0,0,0-.15.23c-.7-.33-1.38-.67-2.06-1a1.26,1.26,0,0,0-.29-1.3.67.67,0,0,0-.14-.09q1.5-2.52,3-5A1.25,1.25,0,0,0,50.89,27.92Zm11,5.27A1.21,1.21,0,0,0,62,34.7a1.65,1.65,0,0,0,.27.19q-1.42,2.19-2.88,4.52a1.23,1.23,0,0,0-1.58.12v0l-2.74-1.23a1.26,1.26,0,0,0-.26-.66q1.48-2.47,2.93-4.85a1.28,1.28,0,0,0,1.31-.29,1.26,1.26,0,0,0,.32-.64C60.2,32.29,61,32.73,61.86,33.19Zm4.94,4.59a1.53,1.53,0,0,0,.16.11q-1.36,1.9-2.78,4a1.26,1.26,0,0,0-1.15.21C62,41.54,61,41,60,40.54a1.28,1.28,0,0,0-.34-1h0q1.47-2.34,2.9-4.53A1.21,1.21,0,0,0,64,34.4c.9.53,1.82,1.09,2.75,1.69A1.23,1.23,0,0,0,66.8,37.78Zm.71,8.85a.86.86,0,0,0,.2.13q-1.36,1.85-2.78,3.82a1.26,1.26,0,0,0-1.36.28s0,.06-.06.09c-1-.47-1.93-.91-2.88-1.33a1.23,1.23,0,0,0-.32-1.11.7.7,0,0,0-.21-.14Q61.57,46.12,63,44a1.25,1.25,0,0,0,1.68-.06,1.34,1.34,0,0,0,.28-.47c.83.46,1.67.94,2.52,1.46A1.23,1.23,0,0,0,67.51,46.63Zm-8.42,10.8a1,1,0,0,0-.19.29c-.93-.36-1.85-.71-2.75-1a1.27,1.27,0,0,0-.29-1.28,1.43,1.43,0,0,0-.22-.15q1.57-2.46,3.12-4.83a1.23,1.23,0,0,0,1.55-.15,1.36,1.36,0,0,0,.24-.35c.92.4,1.85.83,2.79,1.28a1.24,1.24,0,0,0,.2,1.37Q62,54.79,60.4,57.15A1.25,1.25,0,0,0,59.09,57.43Zm-10,5.49a1,1,0,0,0-.2.31c-.84-.3-1.67-.61-2.49-.92A1.24,1.24,0,0,0,46.15,61l-.09-.06q1.71-2.61,3.37-5.21a1.23,1.23,0,0,0,1.46-.21,1.18,1.18,0,0,0,.21-.32l2.65,1a1.24,1.24,0,0,0,.34,1l.06,0q-1.76,2.73-3.57,5.51A1.23,1.23,0,0,0,49.12,62.92ZM34.89,66s0,.1-.09.14c-.82-.54-1.64-1.13-2.44-1.75a1.23,1.23,0,0,0-.21-1.46,1,1,0,0,0-.13-.09c1.17-1.4,2.32-2.84,3.46-4.34a1.24,1.24,0,0,0,1.65-.08,2,2,0,0,0,.12-.19c.76.47,1.52.91,2.29,1.33A1.22,1.22,0,0,0,39.75,61h0Q38,63.43,36.29,65.75A1.24,1.24,0,0,0,34.89,66Zm16-28.89a1.82,1.82,0,0,0,.15-.23l1.83.81a1.23,1.23,0,0,0,.1,1.61,1.26,1.26,0,0,0,.48.29l-2.88,4.74a1.25,1.25,0,0,0-1.45.21,1.94,1.94,0,0,0-.15.24l-2.11-.94a1.23,1.23,0,0,0-.31-1.2,1.25,1.25,0,0,0-.24-.16c1.06-1.71,2.11-3.44,3.14-5.15A1.25,1.25,0,0,0,50.89,37.1Zm6.76,2.71a1.23,1.23,0,0,0,.19,1.49,1.16,1.16,0,0,0,.27.18l-2.93,4.71a1.26,1.26,0,0,0-1.35.27,1.07,1.07,0,0,0-.16.25l-2.47-1a1.22,1.22,0,0,0-.31-1.17,1.53,1.53,0,0,0-.16-.11c1-1.61,2-3.21,2.92-4.8a1.22,1.22,0,0,0,1.09-.33,1.26,1.26,0,0,0,.32-.64C55.91,39,56.78,39.41,57.65,39.81Zm5.2,4Q61.41,46,59.93,48.25a1.25,1.25,0,0,0-1.39.26.49.49,0,0,0-.1.15c-.85-.36-1.69-.71-2.53-1a1.25,1.25,0,0,0-.31-1.16,1.45,1.45,0,0,0-.26-.17c1-1.6,2-3.17,2.94-4.71a1.22,1.22,0,0,0,1.61-.73c1,.46,1.94.94,2.93,1.45A1.23,1.23,0,0,0,62.85,43.84ZM54.09,55.4a1.19,1.19,0,0,0-.28.42l-2.61-1a1.24,1.24,0,0,0-.31-1.13,1.3,1.3,0,0,0-.15-.1C51.86,51.86,53,50.1,54,48.37a1.23,1.23,0,0,0,1.56-.14,1.3,1.3,0,0,0,.21-.31c.81.33,1.63.66,2.45,1a1.26,1.26,0,0,0,.28,1.34s0,0,.05,0l-3.12,4.83A1.23,1.23,0,0,0,54.09,55.4ZM46.34,52a1.14,1.14,0,0,0-.23-.15q1.7-2.66,3.33-5.31a1.22,1.22,0,0,0,1.45-.21,1.37,1.37,0,0,0,.2-.29l2.44,1a1.25,1.25,0,0,0,.3,1.23l.05,0q-1.62,2.61-3.29,5.26a1.23,1.23,0,0,0-1.47.2,1.1,1.1,0,0,0-.18.26c-.77-.3-1.53-.6-2.28-.92A1.23,1.23,0,0,0,46.34,52Zm.21-7.57a1.65,1.65,0,0,0,.19-.27c.68.32,1.38.63,2.09.93a1.24,1.24,0,0,0,.29,1.24,1,1,0,0,0,.17.11Q47.64,49.07,46,51.72a1.25,1.25,0,0,0-1.38.25.91.91,0,0,0-.08.13c-.82-.38-1.62-.77-2.42-1.18a1.25,1.25,0,0,0-.28-1.31l0,0q1.65-2.49,3.25-5A1.21,1.21,0,0,0,46.55,44.4Zm-4.76,7a1,1,0,0,0,.12-.17c.78.41,1.58.8,2.39,1.18a1.24,1.24,0,0,0,.27,1.36l.06,0c-1.15,1.75-2.3,3.5-3.48,5.21a1.24,1.24,0,0,0-1.4.25s0,0,0,0c-.78-.42-1.55-.86-2.31-1.33a1.24,1.24,0,0,0-.28-1.3,1.74,1.74,0,0,0-.18-.11c1.17-1.6,2.32-3.24,3.45-4.9A1.25,1.25,0,0,0,41.79,51.37Zm-.28,7.87a1.43,1.43,0,0,0-.2-.14q1.75-2.58,3.47-5.22a1.23,1.23,0,0,0,1.56-.14,1.41,1.41,0,0,0,.24-.36c.73.31,1.48.61,2.23.91a1.21,1.21,0,0,0,.31,1.19.83.83,0,0,0,.15.11c-1.1,1.73-2.23,3.47-3.37,5.2a1.22,1.22,0,0,0-1.79.58q-1.15-.48-2.28-1A1.19,1.19,0,0,0,41.51,59.24ZM57.3,32.52a1.15,1.15,0,0,0,.29.2L54.7,37.5a1.23,1.23,0,0,0-1.6-.06l-1.92-.86a1.26,1.26,0,0,0-.29-1.25,2,2,0,0,0-.19-.12q1.44-2.43,2.82-4.8a1.23,1.23,0,0,0,1.22-.3,1.34,1.34,0,0,0,.27-.4l2.25,1.1A1.24,1.24,0,0,0,57.3,32.52ZM46.62,35a.86.86,0,0,0,.13-.2l2.07,1a1.26,1.26,0,0,0,.3,1.26,1.77,1.77,0,0,0,.17.12c-1,1.71-2.07,3.44-3.13,5.15a1.25,1.25,0,0,0-1.37.26.65.65,0,0,0-.1.15c-.75-.38-1.48-.77-2.21-1.19a1.24,1.24,0,0,0-.32-1.14s-.09-.05-.13-.09q1.62-2.52,3.18-5.1A1.24,1.24,0,0,0,46.62,35Zm-4.46,7.2a.85.85,0,0,0,.21-.32c.71.4,1.42.78,2.14,1.15a1.24,1.24,0,0,0,.28,1.35l.07.05c-1.06,1.7-2.15,3.38-3.25,5a1.23,1.23,0,0,0-1.59.12s-.05.08-.08.12c-.7-.41-1.38-.84-2.06-1.3a1.23,1.23,0,0,0-.28-1.32s-.05,0-.08,0c1.07-1.52,2.13-3.06,3.17-4.64A1.23,1.23,0,0,0,42.16,42.22ZM37.6,48.87a1,1,0,0,0,.11-.17c.68.46,1.36.89,2,1.3A1.25,1.25,0,0,0,40,51.37a1.43,1.43,0,0,0,.22.15q-1.7,2.5-3.45,4.9a1.25,1.25,0,0,0-1.39.19c-.83-.59-1.66-1.23-2.47-1.91a1.21,1.21,0,0,0-.14-1.4c1.12-1.36,2.21-2.79,3.3-4.26A1.21,1.21,0,0,0,37.6,48.87ZM36.66,66c-.06,0-.13-.08-.2-.13q1.76-2.32,3.45-4.75a1.21,1.21,0,0,0,1.83-.44c.76.36,1.52.71,2.3,1a1.23,1.23,0,0,0,.34,1,.62.62,0,0,0,.17.11q-1.84,2.76-3.73,5.45a1.26,1.26,0,0,0-1.49.19.92.92,0,0,0-.13.21c-.78-.4-1.55-.81-2.32-1.25A1.23,1.23,0,0,0,36.66,66Zm4.44,2.48a1.25,1.25,0,0,0-.12-.08c1.26-1.79,2.5-3.62,3.73-5.45a1.22,1.22,0,0,0,1.44-.22s.05-.08.09-.13c.84.33,1.7.65,2.57,1a1.21,1.21,0,0,0,.31,1.14l.12.07q-1.79,2.73-3.63,5.46a1.25,1.25,0,0,0-1.56.14,1.38,1.38,0,0,0-.23.36c-.81-.32-1.62-.66-2.42-1A1.25,1.25,0,0,0,41.1,68.47Zm13.08-3.61s0,.09-.09.13l-2.88-1a1.21,1.21,0,0,0-.32-1.11c0-.05-.1-.06-.15-.1q1.82-2.77,3.57-5.51a1.24,1.24,0,0,0,1.55-.14A.92.92,0,0,0,56,57l2.79,1a1.25,1.25,0,0,0,.27,1.14c-1.18,1.76-2.39,3.57-3.61,5.42A1.23,1.23,0,0,0,54.18,64.86Zm15-20a1.23,1.23,0,0,0-1.49-.07c-.9-.56-1.79-1.08-2.68-1.58a1.1,1.1,0,0,0-.65-1.2q1.41-2.05,2.78-4a1.22,1.22,0,0,0,1.42-.23,1.6,1.6,0,0,0,.21-.32c1.06.74,2.13,1.54,3.22,2.39a1.22,1.22,0,0,0,0,1.47C71.09,42.41,70.15,43.58,69.19,44.81ZM70.85,32.7l0,0c-.81,1-1.63,2.07-2.47,3.19a1.22,1.22,0,0,0-1.45,0c-1-.63-1.92-1.22-2.86-1.78A1.24,1.24,0,0,0,63.81,33c.9-1.35,1.78-2.66,2.65-3.9A1.22,1.22,0,0,0,68,28.93a.65.65,0,0,0,.1-.15c.91.67,1.82,1.38,2.75,2.14h0A1.25,1.25,0,0,0,70.85,32.7Zm-4.59-3.77h0Q65,30.8,63.64,32.84a1.21,1.21,0,0,0-1.61.1h0c-.88-.48-1.75-.94-2.6-1.38a1.27,1.27,0,0,0-.35-.81l0,0q1.44-2.36,2.82-4.56A1.23,1.23,0,0,0,63.42,26a1.14,1.14,0,0,0,.22-.32c.82.51,1.65,1.06,2.49,1.63A1.23,1.23,0,0,0,66.26,28.93ZM61.66,26s0,0,0,0q-1.38,2.21-2.81,4.56a1.25,1.25,0,0,0-1.35,0l-2.45-1.2a1.21,1.21,0,0,0-.33-1.06h0q1.44-2.47,2.83-4.83a1.26,1.26,0,0,0,1.49-.19,1.18,1.18,0,0,0,.14-.22c.77.43,1.55.88,2.34,1.34A1.24,1.24,0,0,0,61.66,26Zm-4.37-2.72s.09.05.12.08l-2.83,4.84a1.23,1.23,0,0,0-1.61.1l0,0-1.78-.88a1.24,1.24,0,0,0-.28-1.34,1.07,1.07,0,0,0-.22-.15l2.75-4.81a1.23,1.23,0,0,0,1.32-.28,1.53,1.53,0,0,0,.11-.16L57,21.92A1.26,1.26,0,0,0,57.29,23.32ZM46.91,25.56q.95.56,1.92,1.08a1.27,1.27,0,0,0,.29,1.28,1.63,1.63,0,0,0,.17.11c-1,1.67-1.95,3.35-3,5a1.23,1.23,0,0,0-1.47.19.67.67,0,0,0-.09.14c-.6-.34-1.18-.69-1.76-1.06a1.24,1.24,0,0,0-.25-1.4,2.2,2.2,0,0,0-.25-.17c1-1.67,2.05-3.37,3.06-5.07A1.22,1.22,0,0,0,46.91,25.56ZM42.76,32.7s.05-.07.08-.11c.57.37,1.16.72,1.75,1.06A1.25,1.25,0,0,0,44.86,35a1.43,1.43,0,0,0,.2.14c-1,1.72-2.11,3.42-3.19,5.1a1.23,1.23,0,0,0-1.38.13q-1-.64-2-1.35a1.22,1.22,0,0,0-.16-1.51.94.94,0,0,0-.18-.12c1-1.49,2-3,3-4.57A1.23,1.23,0,0,0,42.76,32.7Zm-4.39,6.6c.63.46,1.27.9,1.91,1.32a1.24,1.24,0,0,0,.11,1.6l.15.1c-1,1.57-2.1,3.12-3.18,4.63a1.22,1.22,0,0,0-1.42.08q-1-.78-2-1.65a1.38,1.38,0,0,0,.49-.29,1.27,1.27,0,0,0,0-1.77,1.38,1.38,0,0,0-.36-.23q1.38-1.79,2.71-3.67A1.23,1.23,0,0,0,38.37,39.3Zm-5.69,5.79a1.23,1.23,0,0,0,.91.36c.71.64,1.42,1.24,2.14,1.8a1.25,1.25,0,0,0,.1,1.62l.09.06q-1.62,2.19-3.28,4.23a1.22,1.22,0,0,0-1.49-.06c-.79-.75-1.58-1.55-2.34-2.42a1.21,1.21,0,0,0-.08-1.28C30,48,31.33,46.54,32.6,45,32.63,45,32.64,45.06,32.68,45.09Zm-5.65,6A1.24,1.24,0,0,0,28.61,51s0,0,0-.06q1.13,1.26,2.28,2.37A1.24,1.24,0,0,0,31,55s.06,0,.09.06c-1.06,1.23-2.14,2.39-3.23,3.5a1.23,1.23,0,0,0-1.6-.07c-.81-.95-1.61-2-2.39-3a1.24,1.24,0,0,0,.07-1.55C25,53,26,52.1,27,51.11Zm-4.36,12.4c1.21-.94,2.39-2,3.57-3.08a1.22,1.22,0,0,0,1.41,0c.86.92,1.74,1.79,2.64,2.58a1.23,1.23,0,0,0,0,1.46q-1.77,2-3.58,3.77a1.2,1.2,0,0,0-1.38-.06c-.9-1-1.79-2.1-2.67-3.26A1.23,1.23,0,0,0,22.67,63.51Zm8.44,9C32.41,71,33.7,69.44,35,67.81a1.23,1.23,0,0,0,1.69,0l0-.06c.77.45,1.55.87,2.34,1.27a1.25,1.25,0,0,0,.29,1.27l.06,0c-1.22,1.7-2.46,3.38-3.72,5a1.22,1.22,0,0,0-1.56.13.49.49,0,0,0-.1.15c-.88-.55-1.75-1.15-2.61-1.79A1.26,1.26,0,0,0,31.11,72.53Zm4.77,2.89,0,0c1.25-1.63,2.49-3.31,3.71-5a1.23,1.23,0,0,0,1.54-.15,1.14,1.14,0,0,0,.15-.23c.82.37,1.64.71,2.48,1a1.23,1.23,0,0,0,.32,1.09,1.88,1.88,0,0,0,.18.12c-1.29,1.88-2.59,3.75-3.92,5.59a1.24,1.24,0,0,0-1.54.15l-.08.12c-.86-.4-1.72-.84-2.56-1.3A1.26,1.26,0,0,0,35.88,75.42ZM40.54,78l-.06,0c1.32-1.84,2.63-3.71,3.91-5.59a1.24,1.24,0,0,0,1.43-.23.85.85,0,0,0,.17-.25c.92.33,1.85.64,2.79.94a1.23,1.23,0,0,0,.34,1.05s.06,0,.09.06c-1.25,1.85-2.51,3.72-3.79,5.58a1.23,1.23,0,0,0-1.47.2,1.15,1.15,0,0,0-.28.42c-.94-.33-1.88-.68-2.8-1.06A1.25,1.25,0,0,0,40.54,78Zm13.64-4.18A1.43,1.43,0,0,0,54,74l-2.82-.82a1.24,1.24,0,0,0-.32-1.11s-.11-.06-.15-.1l3.53-5.31a1.19,1.19,0,0,0,2-.64l2.63.87a1.22,1.22,0,0,0,.3,1.21s.1.06.15.1c-1.21,1.75-2.44,3.55-3.68,5.38A1.24,1.24,0,0,0,54.18,73.81Zm5-7.45a1.27,1.27,0,0,0-.18.27c-.91-.31-1.8-.62-2.69-.91a1.3,1.3,0,0,0-.36-.86,1.6,1.6,0,0,0-.32-.21q1.82-2.75,3.58-5.37a1.24,1.24,0,0,0,1.65-.08,1.32,1.32,0,0,0,.19-.29c.93.37,1.86.77,2.81,1.18a1.24,1.24,0,0,0,.3,1.25h0q-1.7,2.35-3.44,4.86A1.24,1.24,0,0,0,59.18,66.36Zm15.38-18a1.21,1.21,0,0,0-1.47,0c-1.18-.89-2.34-1.7-3.48-2.46a1.3,1.3,0,0,0-.25-1c1-1.22,1.89-2.39,2.81-3.47a1.24,1.24,0,0,0,1.7,0l0,0q1.66,1.41,3.39,3.06l-.07,0A1.22,1.22,0,0,0,77,46C76.2,46.71,75.38,47.52,74.56,48.4Zm4.23-4a1.2,1.2,0,0,0-1.32,0c-1.16-1.13-2.31-2.17-3.44-3.14a1.24,1.24,0,0,0-.16-1.53l-.06,0c.79-.87,1.58-1.67,2.35-2.41a1.22,1.22,0,0,0,1.42,0c1.2,1.28,2.43,2.65,3.66,4.14,0,0,0,0,0,0a1.24,1.24,0,0,0-.24,1.4C80.25,43.26,79.52,43.8,78.79,44.4Zm1.32-11.57a1.53,1.53,0,0,0-.16.11,1.21,1.21,0,0,0-.33,1c-.61.42-1.22.91-1.85,1.43a.21.21,0,0,0,0-.06,1.23,1.23,0,0,0-1.71,0c-1.06-1.07-2.11-2.06-3.15-3A1.22,1.22,0,0,0,72.65,31c.73-.84,1.45-1.61,2.16-2.32a1.25,1.25,0,0,0,1.68-.06s0,0,0,0Q78.3,30.53,80.11,32.83Zm-5.29-6.06-.1.07a1.22,1.22,0,0,0-.09,1.63c-.71.73-1.44,1.51-2.17,2.36a1.22,1.22,0,0,0-1.38,0c-1-.79-1.89-1.52-2.82-2.21A1.24,1.24,0,0,0,68,27.16a.67.67,0,0,0-.14-.09c.84-1.15,1.66-2.23,2.46-3.23a1.25,1.25,0,0,0,1.44,0C72.78,24.72,73.8,25.71,74.82,26.77ZM70.14,23.7c-.8,1-1.61,2.09-2.45,3.24a1.23,1.23,0,0,0-1.41.2c-.86-.6-1.71-1.16-2.55-1.69a1.24,1.24,0,0,0-.31-1.18,1.38,1.38,0,0,0-.25-.17q1.33-2.09,2.62-4a1.24,1.24,0,0,0,1.5-.15c.88.69,1.78,1.42,2.69,2.2A1.22,1.22,0,0,0,70.14,23.7Zm-4.81-5.17A1.23,1.23,0,0,0,65.55,20l.06.05c-.85,1.26-1.73,2.58-2.62,4a1.22,1.22,0,0,0-1.26.24c-.81-.48-1.6-.94-2.39-1.38a1.24,1.24,0,0,0-.28-1.3,1.25,1.25,0,0,0-.24-.16q1.34-2.24,2.62-4.32a1.24,1.24,0,0,0,1.48-.19,0,0,0,0,0,0,0C63.72,17.39,64.52,18,65.33,18.53Zm-4.18-1.65a.91.91,0,0,0,.13.08c-.86,1.39-1.73,2.84-2.62,4.33a1.23,1.23,0,0,0-1.37.26.91.91,0,0,0-.08.13L55,20.5a1.26,1.26,0,0,0-.27-1.36l-.12-.07,2.67-4.65a1.26,1.26,0,0,0,1.35-.27c.74.44,1.48.9,2.24,1.38A1.26,1.26,0,0,0,61.15,16.88Zm-4.57-4a1.25,1.25,0,0,0,.29,1.24,1.45,1.45,0,0,0,.26.17c-.87,1.51-1.75,3.06-2.66,4.65a1.23,1.23,0,0,0-1.5.17,2,2,0,0,0-.12.19l-1.73-1a1.12,1.12,0,0,0-.47-1.58c.89-1.58,1.75-3.14,2.61-4.67a1.25,1.25,0,0,0,1.33-.28s0-.06.06-.08Zm-7.1-3.14a1.22,1.22,0,0,0,1.41-.24.56.56,0,0,0,0-.08c.53.35,1.07.69,1.61,1a1.26,1.26,0,0,0,.27,1.36,1,1,0,0,0,.29.19l-2.6,4.67a1.23,1.23,0,0,0-1.39.25,1,1,0,0,0-.12.17c-.6-.37-1.19-.74-1.78-1.13A1.23,1.23,0,0,0,47,14.52l-.15-.1C47.77,12.86,48.63,11.31,49.48,9.77Zm-3.81,6.79A1.28,1.28,0,0,0,47,16.29s0,0,0-.05c.58.39,1.18.77,1.78,1.14a1.25,1.25,0,0,0,.28,1.33.75.75,0,0,0,.18.13c-.86,1.53-1.75,3.08-2.64,4.63a1.18,1.18,0,0,0-1.62.59c-.59-.38-1.16-.77-1.73-1.18A1.26,1.26,0,0,0,43,21.51c-.06-.05-.13-.08-.2-.13Q44.28,19,45.67,16.56Zm-4.1,6.92a1.23,1.23,0,0,0,1.47-.2s.06-.1.1-.15q.88.64,1.8,1.23a1.22,1.22,0,0,0,.32,1.12,1.53,1.53,0,0,0,.16.11c-1,1.7-2,3.4-3.06,5.07a1.27,1.27,0,0,0-1.36.27s0,0,0,0c-.65-.46-1.29-.95-1.91-1.47A1.22,1.22,0,0,0,39,27.81a1,1,0,0,0-.13-.09C39.79,26.33,40.69,24.91,41.57,23.48Zm-4,6.28a1.22,1.22,0,0,0,1.32-.07c.65.54,1.3,1,2,1.53A1.21,1.21,0,0,0,41,32.7s0,0,0,0c-1,1.55-2,3.08-3,4.56a1.24,1.24,0,0,0-1.42.22c-.68-.58-1.35-1.19-2-1.84a1.24,1.24,0,0,0-.16-1.54l0,0C35.46,32.71,36.5,31.25,37.52,29.76Zm-3.08,6.16c.66.65,1.33,1.27,2,1.84a1.22,1.22,0,0,0,.16,1.53l0,0c-.9,1.27-1.82,2.51-2.75,3.7a1.24,1.24,0,0,0-1.21.3,1.37,1.37,0,0,0-.31.58c-.83-.83-1.64-1.73-2.44-2.7a1.21,1.21,0,0,0,0-1.58c1-1.13,2-2.32,3-3.56A1.25,1.25,0,0,0,34.44,35.92ZM28.21,41.4a1.21,1.21,0,0,0,1.53,0c.85,1,1.7,2,2.58,2.85a1.28,1.28,0,0,0,.16.56q-1.9,2.34-3.88,4.41a1.26,1.26,0,0,0-1.27-.29c-.77-1-1.53-2-2.28-3.1h0a1.23,1.23,0,0,0,.13-1.57C26.2,43.37,27.21,42.42,28.21,41.4Zm-4.95,4.38,0,0a1.23,1.23,0,0,0,1.56.14c.74,1.1,1.49,2.13,2.25,3.1a1.07,1.07,0,0,0-.25.16,1.25,1.25,0,0,0,0,1.76c-1,1-2,1.88-3.08,2.71a1.24,1.24,0,0,0-1.28-.24q-1.29-2-2.53-4.24s.08,0,.11-.07a1.26,1.26,0,0,0,.25-1.39A29.68,29.68,0,0,0,23.26,45.78ZM18.1,48.86a1.59,1.59,0,0,0,.18.27,1.23,1.23,0,0,0,1.47.19c.82,1.51,1.66,2.93,2.51,4.24a1.6,1.6,0,0,0-.23.16,1.24,1.24,0,0,0-.23,1.41,29.5,29.5,0,0,1-3,1.84l0,0a1.26,1.26,0,0,0-1.42-.23q-1.41-2.6-2.74-5.59a1.13,1.13,0,0,0,.2-.13,1.21,1.21,0,0,0,.33-1.06A20.17,20.17,0,0,0,18.1,48.86Zm-9,2.3a1.22,1.22,0,0,0,.41-.27,1.28,1.28,0,0,0,.27-.4,17.29,17.29,0,0,0,3-.1,1.21,1.21,0,0,0,.31.59,1.23,1.23,0,0,0,1.39.25q1.33,3,2.73,5.6l-.16.1A1.26,1.26,0,0,0,16.7,58a21.54,21.54,0,0,1-3.12,1,1.38,1.38,0,0,0-.19-.28,1.23,1.23,0,0,0-1.32-.28Q10.56,55.08,9.11,51.16Zm4,9.56a1.13,1.13,0,0,0,.61-1.36,22.26,22.26,0,0,0,3.07-1,1.4,1.4,0,0,0,.26.39,1.24,1.24,0,0,0,1.36.27c.86,1.5,1.74,2.89,2.64,4.2a1.32,1.32,0,0,0-.25.16,1.26,1.26,0,0,0-.25,1.39,30.28,30.28,0,0,1-3.11,1.85s0,0,0-.06A1.23,1.23,0,0,0,16,66.27C15,64.54,14,62.7,13.09,60.72Zm4.12,7.67a1.77,1.77,0,0,0,.17-.12,1.23,1.23,0,0,0,.21-1.44A33.7,33.7,0,0,0,20.69,65a1.19,1.19,0,0,0,.09.15,1.24,1.24,0,0,0,1.67.06c.87,1.15,1.74,2.22,2.63,3.22h0A1.23,1.23,0,0,0,24.93,70q-1.74,1.58-3.52,2.92h0a1.24,1.24,0,0,0-1.4-.24C19.05,71.31,18.12,69.89,17.21,68.39Zm8.72,11.09a1.24,1.24,0,0,0,0-1.4q1.8-1.76,3.57-3.7a1.22,1.22,0,0,0,1.63-.09.78.78,0,0,0,.15-.22q1.28.95,2.58,1.77a1.25,1.25,0,0,0,.28,1.35l0,0q-1.81,2.28-3.69,4.42a1.23,1.23,0,0,0-1.65.07,1.07,1.07,0,0,0-.13.19C27.76,81.15,26.84,80.35,25.93,79.48Zm4.73,3.89a1.24,1.24,0,0,0,0-1.58c1.24-1.44,2.48-2.92,3.69-4.45a1.25,1.25,0,0,0,1.55-.15l.06-.1c.85.46,1.7.9,2.56,1.31a1.24,1.24,0,0,0,.27,1.36l.1.07q-1.87,2.57-3.81,5a1.23,1.23,0,0,0-1.46.2.67.67,0,0,0-.09.14C32.54,84.64,31.59,84,30.66,83.37Zm5,3a1.24,1.24,0,0,0-.29-1.31s-.08,0-.12-.08q1.92-2.49,3.8-5a1.23,1.23,0,0,0,1.5-.18,1.08,1.08,0,0,0,.24-.36c.93.38,1.87.74,2.82,1.07a1.22,1.22,0,0,0,.35,1s0,0,.08.06c-1.32,1.88-2.65,3.76-4,5.62a1.24,1.24,0,0,0-1.43.22,1.43,1.43,0,0,0-.2.3C37.47,87.27,36.56,86.85,35.65,86.38Zm5,2.19a1.27,1.27,0,0,0-.31-1.2,1,1,0,0,0-.17-.11c1.35-1.86,2.68-3.74,4-5.62a1.24,1.24,0,0,0,1.53-.17,1.07,1.07,0,0,0,.16-.25c1,.3,1.92.58,2.9.85a1.25,1.25,0,0,0,.34,1l.07,0q-2,2.9-4,5.82a1.23,1.23,0,0,0-1.58.12,1.11,1.11,0,0,0-.28.41C42.44,89.18,41.55,88.89,40.68,88.57ZM50.6,90.3a1.21,1.21,0,0,0-1.48.19,1.11,1.11,0,0,0-.28.43c-1.06-.24-2.11-.49-3.14-.77a1.23,1.23,0,0,0-.33-1.1h0q2-2.92,4-5.82a1.23,1.23,0,0,0,1.54-.15,1.19,1.19,0,0,0,.25-.38l3,.73a1.24,1.24,0,0,0,.31,1.16s0,0,.08,0Zm5.29-7.68a1.23,1.23,0,0,0-1.47.2,1.38,1.38,0,0,0-.19.28c-1-.24-2-.48-3-.74a1.21,1.21,0,0,0-.33-1.06,1.12,1.12,0,0,0-.16-.1c1.26-1.84,2.49-3.66,3.71-5.45A1.24,1.24,0,0,0,56,75.58a1.28,1.28,0,0,0,.3-.56c1,.28,2,.58,3.08.88a1.25,1.25,0,0,0,.3,1.23l.07,0Q57.83,79.82,55.89,82.62Zm5.23-7.45a1.13,1.13,0,0,0-1.65.43l-3.16-.91a1.24,1.24,0,0,0-.36-.88s-.09,0-.14-.09c1.25-1.83,2.48-3.63,3.69-5.38A1.25,1.25,0,0,0,61,68.13a1.4,1.4,0,0,0,.26-.39c1,.36,2.09.75,3.15,1.16a1.23,1.23,0,0,0,.28,1.34s0,0,0,0C63.52,71.85,62.32,73.49,61.12,75.17Zm5.05-6.85a1.24,1.24,0,0,0-1.53.15,1,1,0,0,0-.11.17c-1.1-.43-2.18-.83-3.25-1.22A1.24,1.24,0,0,0,61,66.36l-.05,0q1.76-2.51,3.46-4.86a1.22,1.22,0,0,0,1.56-.13.91.91,0,0,0,.16-.24c1,.47,2,1,3.06,1.51a1.25,1.25,0,0,0,.21,1.45,1.05,1.05,0,0,0,.11.07C68.38,65.46,67.28,66.85,66.17,68.32Zm14-15.22A1.24,1.24,0,0,0,78.57,53Q76.76,51.33,75,49.9a1.25,1.25,0,0,0-.22-1.34c.81-.85,1.61-1.64,2.39-2.36l.07.09a1.24,1.24,0,0,0,1.76,0s0,0,.06-.08q1.8,1.86,3.66,4l-.08.05a1.25,1.25,0,0,0-.28,1.33C81.64,52.05,80.92,52.55,80.2,53.1Zm4.3-2.65a1.63,1.63,0,0,0-.11-.17,1.24,1.24,0,0,0-1.54-.15c-1.25-1.46-2.48-2.83-3.7-4.09A1.21,1.21,0,0,0,79,44.59c.72-.58,1.42-1.09,2.11-1.55a1.05,1.05,0,0,0,.07.11,1.23,1.23,0,0,0,1.59.12c1.32,1.67,2.65,3.49,4,5.45a2,2,0,0,0-.19.12,1.24,1.24,0,0,0-.35,1A13.52,13.52,0,0,0,84.5,50.45Zm4.18-1.09a1.24,1.24,0,0,0-.3-.52,1.23,1.23,0,0,0-1.46-.2q-2-2.94-4-5.46l0,0a1.25,1.25,0,0,0,.28-1.31,13.67,13.67,0,0,1,1.58-.63.47.47,0,0,1,.06.09,1.23,1.23,0,0,0,1.44.22c1.47,2.27,3,4.73,4.47,7.4a1.3,1.3,0,0,0-.31.21,1.37,1.37,0,0,0-.2.29A9.6,9.6,0,0,0,88.68,49.36Z"/><text x="0" y="115" fill="#000000" font-size="5px" font-weight="bold" font-family="'Helvetica Neue', Helvetica, Arial-Unicode, Arial, Sans-serif">Created by Product Pencil</text><text x="0" y="120" fill="#000000" font-size="5px" font-weight="bold" font-family="'Helvetica Neue', Helvetica, Arial-Unicode, Arial, Sans-serif">from the Noun Project</text></svg>