<svg xmlns="http://www.w3.org/2000/svg" version="1.1" viewBox="-5.0 -10.0 110.0 135.0">
 <g>
  <path d="m50 93.898c-0.77344 0-1.3984-0.625-1.3984-1.3984v-40c0-0.77344 0.625-1.3984 1.3984-1.3984s1.3984 0.625 1.3984 1.3984v37.637c7.5352-3.8789 15.781-5.5039 21.594-6.1875 3.4883-0.41406 6.9961-0.59766 10.508-0.55078v-43.145c-12.18-4.1367-21.121-1.2812-26.523 1.8984-0.66797 0.38281-1.5156 0.15625-1.9062-0.50391-0.38672-0.66016-0.17187-1.5117 0.48438-1.9102 6.0586-3.5664 16.148-6.7734 29.824-1.8008v0.003906c0.55469 0.19922 0.92578 0.73047 0.92188 1.3203v45.594c0 0.38672-0.16016 0.75781-0.44141 1.0195-0.28125 0.26562-0.66016 0.40234-1.0469 0.37891-0.046875 0-4.9219-0.30078-11.555 0.48438-6.0781 0.71875-14.922 2.5078-22.555 6.9727-0.21484 0.125-0.45703 0.1875-0.70312 0.1875z"/>
  <path d="m50 93.898c-0.25 0-0.49219-0.066407-0.70703-0.19141-7.6328-4.4648-16.477-6.2539-22.555-6.9727-6.6328-0.78125-11.508-0.48828-11.555-0.48438-0.38672 0.023438-0.76562-0.11328-1.0469-0.375-0.28125-0.26562-0.44141-0.63672-0.44141-1.0234v-45.59c0-0.58984 0.36719-1.1133 0.92188-1.3164 13.68-4.9766 23.773-1.7695 29.832 1.8008 0.64453 0.40234 0.84766 1.2422 0.46484 1.8984-0.38672 0.65234-1.2188 0.87891-1.8828 0.51172-5.4062-3.1797-14.352-6.043-26.531-1.9023v43.145c3.5117-0.050782 7.0234 0.13281 10.512 0.54687 5.8125 0.67969 14.059 2.3086 21.594 6.1875v-37.633c0-0.77344 0.625-1.3984 1.3984-1.3984 0.77344 0 1.3984 0.625 1.3984 1.3984v40c0 0.37109-0.14453 0.72656-0.41016 0.98828-0.26172 0.26562-0.61719 0.41016-0.98828 0.41016z"/>
  <path d="m92.5 93.898h-85c-0.77344 0-1.3984-0.625-1.3984-1.3984v-46.523c0-0.77344 0.625-1.4023 1.3984-1.4023h7.6016c0.77344 0 1.3984 0.62891 1.3984 1.4023 0 0.77344-0.625 1.3984-1.3984 1.3984h-6.2031v43.727h82.203v-43.727h-6.2031c-0.77344 0-1.3984-0.625-1.3984-1.3984 0-0.77344 0.625-1.4023 1.3984-1.4023h7.6016c0.77344 0 1.3984 0.62891 1.3984 1.4023v46.523c0 0.37109-0.14453 0.72656-0.41016 0.98828-0.26172 0.26562-0.61719 0.41016-0.98828 0.41016z"/>
  <path d="m41.82 57.641c-0.40234 0-0.78516-0.17188-1.0508-0.47656-0.027343-0.03125-1.5312-1.6875-4.3203-2.8594-3.7344-1.5703-7.9141-1.5859-12.422-0.042969v0.003906c-0.35156 0.125-0.74219 0.10547-1.082-0.058594-0.33594-0.16016-0.59375-0.45312-0.71875-0.80859-0.12109-0.35547-0.09375-0.74219 0.074219-1.0781 0.16797-0.33594 0.46484-0.58984 0.82031-0.70703 6.5273-2.2344 11.52-1.1406 14.562 0.17188 3.3359 1.4375 5.1172 3.4453 5.1914 3.5273l-0.003906 0.003906c0.36328 0.41406 0.44922 1 0.22266 1.5s-0.72266 0.82031-1.2734 0.82422z"/>
  <path d="m41.672 69.07c-0.40234 0-0.78516-0.17187-1.0508-0.47266-0.027344-0.03125-1.5312-1.6875-4.3203-2.8594-3.7344-1.5703-7.9141-1.5859-12.422-0.042969-0.35547 0.12891-0.74219 0.10938-1.082-0.054687-0.33594-0.16016-0.59766-0.45312-0.71875-0.80859s-0.09375-0.74219 0.074219-1.0781c0.16797-0.33594 0.46094-0.58984 0.82031-0.70703 6.5273-2.2344 11.52-1.1367 14.562 0.17188 3.3359 1.4375 5.1172 3.4453 5.1914 3.5273l-0.003906 0.003906c0.36328 0.41406 0.44922 1 0.22266 1.5-0.22656 0.5-0.72656 0.82031-1.2734 0.82031z"/>
  <path d="m41.523 80.504c-0.40234 0-0.78516-0.17188-1.0508-0.47266-0.027344-0.03125-1.5312-1.6875-4.3203-2.8594-3.7344-1.5703-7.9141-1.5859-12.422-0.042969-0.35547 0.12891-0.74219 0.10938-1.082-0.054687-0.33594-0.16406-0.59766-0.45312-0.71875-0.80859-0.12109-0.35547-0.09375-0.74219 0.074218-1.0781 0.16797-0.33594 0.46094-0.58984 0.82031-0.70703 6.5273-2.2344 11.52-1.1367 14.562 0.17188 3.3359 1.4414 5.1133 3.4492 5.1875 3.5312 0.36328 0.41406 0.44922 1 0.22266 1.5s-0.72656 0.82031-1.2734 0.82031z"/>
  <path d="m58.18 56.867c-0.55078 0-1.0469-0.32031-1.2734-0.82031s-0.14062-1.0859 0.22266-1.5c0.074219-0.085937 1.8555-2.0898 5.1914-3.5273 3.0391-1.3125 8.0352-2.4062 14.562-0.17188l-0.003906-0.003906c0.35547 0.11719 0.65234 0.37109 0.82031 0.70703 0.16797 0.33594 0.19531 0.72266 0.074219 1.0781-0.125 0.35547-0.38281 0.64844-0.71875 0.80859-0.33984 0.16406-0.73047 0.18359-1.082 0.054688-10.801-3.6992-16.684 2.832-16.738 2.8984v0.003906c-0.26953 0.30078-0.65234 0.47656-1.0547 0.47266z"/>
  <path d="m58.328 68.305c-0.55078 0.003906-1.0508-0.32031-1.2773-0.82031-0.22656-0.50391-0.14062-1.0898 0.22656-1.5039 0.074218-0.085938 1.8555-2.0898 5.1914-3.5273 3.0391-1.3125 8.0352-2.4062 14.562-0.17188l-0.003906-0.003906c0.35938 0.11719 0.65234 0.37109 0.82031 0.70703 0.16797 0.33594 0.19531 0.72266 0.074219 1.0781s-0.38281 0.64844-0.71875 0.80859c-0.33984 0.16406-0.72656 0.18359-1.082 0.054687-4.5078-1.543-8.6875-1.5273-12.422 0.042969-2.8008 1.1797-4.3086 2.8438-4.3203 2.8594-0.26562 0.30469-0.64844 0.48047-1.0508 0.47656z"/>
  <path d="m58.477 79.738c-0.55078 0-1.0508-0.32031-1.2773-0.82422-0.22656-0.5-0.13672-1.0898 0.22656-1.5 0.074219-0.085937 1.8555-2.0898 5.1914-3.5273 3.0391-1.3125 8.0352-2.4062 14.562-0.17188l-0.003907-0.003906c0.35938 0.11719 0.65234 0.37109 0.82031 0.70703 0.16797 0.33203 0.19531 0.72266 0.074218 1.0781-0.12109 0.35547-0.38281 0.64453-0.71875 0.80859-0.33984 0.16406-0.72656 0.18359-1.082 0.054687-4.5078-1.543-8.6875-1.5273-12.422 0.042969-2.8008 1.1797-4.3086 2.8438-4.3203 2.8594-0.26562 0.30469-0.64844 0.47656-1.0508 0.47656z"/>
  <path d="m56.105 44.742h-12.211c-0.77344 0-1.4023-0.62891-1.4023-1.4023v-0.64062c-0.007813-2.25-0.875-4.4141-2.4258-6.0508-3.6836-3.9297-4.6992-9.6562-2.6016-14.613 2.1016-4.9609 6.9258-8.2148 12.309-8.3008 3.6992-0.058594 7.1719 1.3164 9.7812 3.8711 5.2539 5.1914 5.4297 13.617 0.39844 19.023-1.5625 1.6602-2.4375 3.8555-2.4453 6.1367v0.57812c0 0.77344-0.62891 1.3984-1.4023 1.3984zm-10.836-2.8008h9.4648c0.19922-2.6992 1.3164-5.25 3.1719-7.2227 2.9805-3.168 3.7734-7.8125 2.0039-11.785-1.7656-3.9727-5.7422-6.4961-10.09-6.4023-5.8633 0.09375-10.633 4.9453-10.633 10.812-0.003906 2.7422 1.0391 5.3867 2.9219 7.3906 1.8555 1.9609 2.9727 4.5117 3.1602 7.207z"/>
  <path d="m56.105 49.32h-12.211c-0.77344 0-1.4023-0.62891-1.4023-1.3984v-4.582c0-0.77344 0.62891-1.3984 1.4023-1.3984h12.211c0.77344 0 1.4023 0.625 1.4023 1.3984v4.582c0 0.37109-0.14844 0.72656-0.41016 0.98828-0.26562 0.26172-0.62109 0.41016-0.99219 0.41016zm-10.812-2.8008h9.4102l0.003906-1.7773h-9.4141z"/>
  <path d="m53.102 53.898h-6.2031c-2.4336 0-4.4062-1.9727-4.4062-4.4062v-1.5703c0-0.77344 0.625-1.4023 1.3984-1.4023h12.215c0.77344 0 1.4023 0.62891 1.4023 1.4023v1.5703c-0.003906 2.4297-1.9766 4.4023-4.4062 4.4062zm-7.8008-4.5781v0.17188c0 0.88281 0.71484 1.6016 1.5977 1.6094h6.2031c0.88672-0.003906 1.6055-0.72266 1.6094-1.6094v-0.17188z"/>
  <path d="m36.09 20.828c-0.24609 0-0.48828-0.0625-0.70312-0.1875l-3.375-1.9492c-0.32031-0.18359-0.55469-0.49219-0.65234-0.84766-0.09375-0.35938-0.042969-0.74219 0.14062-1.0625 0.38672-0.67188 1.2422-0.90234 1.9141-0.51562l3.375 1.9492c0.54688 0.31641 0.8125 0.96484 0.65234 1.5742-0.16406 0.61328-0.71875 1.0391-1.3516 1.0391z"/>
  <path d="m33.938 28.859h-3.9023c-0.76953 0-1.3984-0.625-1.3984-1.3984 0-0.77344 0.62891-1.4023 1.3984-1.4023h3.9023c0.77344 0 1.3984 0.62891 1.3984 1.4023 0 0.77344-0.625 1.3984-1.3984 1.3984z"/>
  <path d="m69.961 28.859h-3.9023c-0.77344 0-1.3984-0.625-1.3984-1.3984 0-0.77344 0.625-1.4023 1.3984-1.4023h3.9023c0.77344 0 1.3984 0.62891 1.3984 1.4023 0 0.77344-0.625 1.3984-1.3984 1.3984z"/>
  <path d="m63.91 20.828c-0.63281 0-1.1875-0.42578-1.3516-1.0391-0.16016-0.60937 0.10547-1.2578 0.65234-1.5742l3.375-1.9492c0.67187-0.38672 1.5273-0.15625 1.9141 0.51562 0.38672 0.66797 0.15625 1.5234-0.51172 1.9102l-3.375 1.9492c-0.21484 0.125-0.45703 0.1875-0.70312 0.1875z"/>
  <path d="m58.031 14.949c-0.5 0-0.96094-0.26953-1.2109-0.69922-0.25-0.43359-0.25-0.96875 0-1.4023l1.9492-3.375h-0.003906c0.38672-0.66797 1.2461-0.89844 1.9141-0.51172 0.66797 0.38672 0.89844 1.2422 0.51172 1.9141l-1.9492 3.375c-0.25 0.43359-0.71094 0.69922-1.2109 0.69922z"/>
  <path d="m50 12.801c-0.77344 0-1.3984-0.62891-1.3984-1.4023v-3.8984c0-0.77344 0.625-1.3984 1.3984-1.3984s1.3984 0.625 1.3984 1.3984v3.8984c0 0.37109-0.14453 0.73047-0.41016 0.99219-0.26172 0.26172-0.61719 0.41016-0.98828 0.41016z"/>
  <path d="m41.969 14.949c-0.5 0-0.96094-0.26562-1.2109-0.69922l-1.9492-3.375c-0.38672-0.67188-0.15625-1.5273 0.51172-1.9141 0.66797-0.38672 1.5273-0.15625 1.9141 0.51172l1.9492 3.375h-0.003906c0.25 0.43359 0.25 0.96875 0 1.4023-0.25 0.42969-0.71094 0.69922-1.2109 0.69922z"/>
 </g>
<text x="0.0" y="117.5" font-size="5.0" font-weight="bold" font-family="Arbeit Regular, Helvetica, Arial-Unicode, Arial, Sans-serif" fill="#000000">Created by Qadeer Hussain</text><text x="0.0" y="122.5" font-size="5.0" font-weight="bold" font-family="Arbeit Regular, Helvetica, Arial-Unicode, Arial, Sans-serif" fill="#000000">from Noun Project</text></svg>